<svg width="175" height="191" fill="none" xmlns="http://www.w3.org/2000/svg"><g clip-path="url(#a)"><path d="M93.688 20.06c6.108 16.332 26.099 13.874 39.664 10.386 3.253-.872 6.585-1.824 9.52-3.489 2.935-1.665 5.394-4.36 6.346-7.611 1.031-3.647-.159-7.691-2.221-10.862-1.904-2.934-4.681-6.026-7.616-7.929-1.269 3.25-5.791 3.489-8.885 3.489-4.363 0-8.329-1.665-12.375-2.855C113.996 0 109.553-.238 105.428.872c-8.33 1.982-14.993 10.466-11.74 19.187ZM106.142 129.395c-.238 0-.317 0-.476.079l.476-.079Z" fill="#0C0B0B"/><path d="M106.142 129.395c-.238 0-.317 0-.476.079l.476-.079Z" fill="#0C0B0B"/><path d="M88.531 49.87V34.57c0-13.003 12.138-23.628 26.972-23.628 7.378 0 14.121 2.617 19.039 6.898 4.919 4.282 7.933 10.149 7.933 16.65v15.303M142.475 66.442v17.68c0 13.003-12.137 23.628-26.972 23.628-14.834 0-26.972-10.625-26.972-23.627V66.442" stroke="#0C0B0B" stroke-width="2" stroke-miterlimit="10"/><path d="M99.479 71.912c7.579 0 13.724-6.14 13.724-13.716 0-7.575-6.145-13.716-13.724-13.716-7.58 0-13.724 6.14-13.724 13.716 0 7.575 6.144 13.716 13.724 13.716ZM131.448 71.912c7.58 0 13.724-6.14 13.724-13.716 0-7.575-6.144-13.716-13.724-13.716-7.579 0-13.724 6.14-13.724 13.716 0 7.575 6.145 13.716 13.724 13.716Z" stroke="#0C0B0B" stroke-width="2" stroke-miterlimit="10"/><path d="M113.123 57.8h4.76" stroke="#0C0B0B" stroke-width="4" stroke-miterlimit="10"/><path d="M126.53 105.609h.079v24.816M106.777 130.108v-23.865" stroke="#0C0B0B" stroke-width="2" stroke-miterlimit="10"/><path d="M99.479 61.367a3.173 3.173 0 1 0 .001-6.345 3.173 3.173 0 0 0-.001 6.345ZM131.448 61.367a3.172 3.172 0 1 0 0-6.342 3.172 3.172 0 1 0 0 6.342Z" fill="#0C0B0B"/><path d="M86.707 63.35H85.12c-1.745 0-3.332.713-4.522 1.823-1.11 1.19-1.824 2.775-1.824 4.52 0 3.488 2.856 6.342 6.346 6.342h3.173M144.22 63.35h1.587c3.49 0 6.346 2.854 6.346 6.342 0 1.745-.714 3.33-1.904 4.52a6.295 6.295 0 0 1-4.442 1.823h-3.173" stroke="#0C0B0B" stroke-width="2" stroke-miterlimit="10"/><path d="M88.373 67.79v3.805h-2.539c-1.031 0-1.904-.872-1.904-1.903 0-.555.238-1.03.555-1.347a1.914 1.914 0 0 1 1.35-.555h2.538ZM142.634 71.595V67.79h2.538c1.032 0 1.904.872 1.904 1.902 0 .555-.238 1.031-.555 1.348a1.914 1.914 0 0 1-1.349.555h-2.538Z" fill="#0C0B0B"/><path d="M115.503 71.278s-3.966 6.343 2.38 4.757M108.364 89.593s6.346 7.85 15.072 0" stroke="#0C0B0B" stroke-width="2" stroke-miterlimit="10" stroke-linecap="round"/><path d="M93.291 41.942s4.363-4.36 11.899-.792M137.715 41.942s-4.363-4.36-11.899-.792" stroke="#0C0B0B" stroke-width="3" stroke-miterlimit="10" stroke-linecap="round"/><path d="M88.373 32.904s-10.948-8.484-6.188-18.791c4.76-10.307 19.832-4.757 19.832-4.757s6.029 25.688-13.644 23.548Z" fill="#0C0B0B"/><path d="M33.953 96.254c-.952-3.092-2.3-4.599-3.015-9.118-1.507-9.039-.952-17.68-4.68-17.364-1.507.159-1.983 1.745-1.904 2.617l1.19 14.271c-.476 1.665-1.349 1.031-1.349 1.031s-3.093-12.686-3.49-14.985c-.397-2.22-1.507-3.489-3.015-3.33-2.618.238-1.586 3.41-1.348 4.599l2.776 15.381c.238 1.506-1.348 1.03-1.348 1.03l-6.188-15.38c-.714-1.666-2.063-1.27-2.063-1.27-2.459.556-1.507 2.776-1.507 2.776l5.315 16.333v.237c.08.873-1.031 1.348-1.507.555-1.666-2.537-4.918-6.58-7.616-8.166-1.348-.793-2.3-.634-2.855-.238-.556.396-.635 1.11-.238 1.665l9.916 14.351c2.3 15.223 11.582 17.046 11.582 17.046l5.553 21.725 8.17 34.251 1.032 4.361c.952 4.202 4.76 7.215 9.044 7.215h4.363c3.093 0 5.235-3.013 4.283-5.867l-19.753-60.099-.872-5.233c1.904-2.14 3.173-6.66 3.808-9.911.396-1.744.555-3.567.396-5.312-.317-4.36 2.618-12.21 2.618-12.21-.238-1.506-3.094-.238-3.094-.238-3.173 1.11-3.966 6.185-4.204 8.96-.08 1.189-.635 2.22-1.428 3.013-4.76 4.677-5.156 9.91-5.156 9.91" stroke="#0C0B0B" stroke-width="2" stroke-miterlimit="10"/><path d="M20.626 72.785c-.397-2.22-1.111-3.885-3.015-3.33-2.539.713-1.587 3.409-1.349 4.598" stroke="#0C0B0B" stroke-width="2" stroke-miterlimit="10"/><path d="M175 190.207V191h-17.294l-3.649-20.218V191H79.17v-11.496c0-2.775 0-5.55.08-8.325-1.666 1.347-3.49 2.457-5.633 3.647l-16.58 11.1c-.079.079-.158.079-.237.158a4.842 4.842 0 0 1-2.38.635l-3.448.13s3.686-1.399 4.558-4.888l-5.95-19.821c8.489-7.057 22.213-27.433 48.55-31.635 1.11-.238 2.301-.476 3.57-.635 1.19-.158 2.38-.317 3.728-.396l.873-.079v.158l-.476.08c.159 0 .238 0 .397-.08h.079c.159 0 .317 0 .476-.079h.079l.794-.079v3.013c0 .396.158.872.555 1.268 1.19 1.348 3.887 2.379 7.14 2.617.555.079 1.11.079 1.665.079h.238c3.174-.079 6.109-.951 7.616-2.22.476-.396.952-.951.952-1.744v-2.775l.793.158h.159c.238 0 .397.079.635.079v-.237l1.031.158C157.548 133.359 175 155.956 175 190.207Z" fill="#0C0B0B"/><path d="m56.958 185.846-.238.159c.08 0 .159-.079.238-.159Z" fill="#0C0B0B"/></g><defs><clipPath id="a"><path fill="#fff" d="M0 0h175v191H0z"/></clipPath></defs></svg>
